STARTFONT 2.1
FONT Nimbus11
SIZE 11 78 78
FONTBOUNDINGBOX 9 11 0 -2
COMMENT "Generated by fontforge, http://fontforge.sourceforge.net"
COMMENT ""
STARTPROPERTIES 7
DEFAULT_CHAR 0
POINT_SIZE 360
FONT_DESCENT 2
FONT_ASCENT 9
COPYRIGHT "Public domain font.  Share and enjoy."
CHARSET_REGISTRY "ISO10646"
CHARSET_ENCODING "1"
ENDPROPERTIES
CHARS 371
STARTCHAR uni0000
ENCODING 0
SWIDTH 727 0
DWIDTH 8 0
BBX 7 9 1 0
BITMAP
AA
00
82
00
82
00
82
00
AA
ENDCHAR
STARTCHAR space
ENCODING 32
SWIDTH 272 0
DWIDTH 3 0
BBX 1 1 0 0
BITMAP
00
ENDCHAR
STARTCHAR exclam
ENCODING 33
SWIDTH 272 0
DWIDTH 3 0
BBX 2 8 1 0
BITMAP
C0
C0
C0
C0
C0
C0
00
C0
ENDCHAR
STARTCHAR quotedbl
ENCODING 34
SWIDTH 363 0
DWIDTH 4 0
BBX 3 2 1 6
BITMAP
A0
A0
ENDCHAR
STARTCHAR numbersign
ENCODING 35
SWIDTH 727 0
DWIDTH 8 0
BBX 7 8 1 0
BITMAP
14
14
7E
28
28
FC
50
50
ENDCHAR
STARTCHAR dollar
ENCODING 36
SWIDTH 545 0
DWIDTH 6 0
BBX 5 9 1 0
BITMAP
20
70
A8
E0
70
38
A8
70
20
ENDCHAR
STARTCHAR percent
ENCODING 37
SWIDTH 909 0
DWIDTH 10 0
BBX 9 8 1 0
BITMAP
6E00
B400
6400
0800
0800
1300
1580
3300
ENDCHAR
STARTCHAR ampersand
ENCODING 38
SWIDTH 636 0
DWIDTH 7 0
BBX 6 8 1 0
BITMAP
70
D8
D8
60
DC
D8
D8
70
ENDCHAR
STARTCHAR quotesingle
ENCODING 39
SWIDTH 181 0
DWIDTH 2 0
BBX 1 2 1 6
BITMAP
80
80
ENDCHAR
STARTCHAR parenleft
ENCODING 40
SWIDTH 363 0
DWIDTH 4 0
BBX 3 10 1 -1
BITMAP
20
40
C0
C0
C0
C0
C0
C0
40
20
ENDCHAR
STARTCHAR parenright
ENCODING 41
SWIDTH 363 0
DWIDTH 4 0
BBX 3 10 1 -1
BITMAP
80
40
60
60
60
60
60
60
40
80
ENDCHAR
STARTCHAR asterisk
ENCODING 42
SWIDTH 545 0
DWIDTH 6 0
BBX 5 5 1 2
BITMAP
20
A8
70
A8
20
ENDCHAR
STARTCHAR plus
ENCODING 43
SWIDTH 545 0
DWIDTH 6 0
BBX 5 5 1 2
BITMAP
20
20
F8
20
20
ENDCHAR
STARTCHAR comma
ENCODING 44
SWIDTH 272 0
DWIDTH 3 0
BBX 2 4 1 -2
BITMAP
C0
C0
40
80
ENDCHAR
STARTCHAR hyphen
ENCODING 45
SWIDTH 545 0
DWIDTH 6 0
BBX 5 1 1 4
BITMAP
F8
ENDCHAR
STARTCHAR period
ENCODING 46
SWIDTH 272 0
DWIDTH 3 0
BBX 2 2 1 0
BITMAP
C0
C0
ENDCHAR
STARTCHAR slash
ENCODING 47
SWIDTH 545 0
DWIDTH 6 0
BBX 5 8 1 0
BITMAP
08
18
10
30
20
60
40
C0
ENDCHAR
STARTCHAR zero
ENCODING 48
SWIDTH 545 0
DWIDTH 6 0
BBX 5 8 1 0
BITMAP
70
D8
D8
D8
D8
D8
D8
70
ENDCHAR
STARTCHAR one
ENCODING 49
SWIDTH 545 0
DWIDTH 6 0
BBX 4 8 1 0
BITMAP
30
70
B0
30
30
30
30
30
ENDCHAR
STARTCHAR two
ENCODING 50
SWIDTH 545 0
DWIDTH 6 0
BBX 5 8 1 0
BITMAP
70
98
18
30
60
C0
C0
F8
ENDCHAR
STARTCHAR three
ENCODING 51
SWIDTH 545 0
DWIDTH 6 0
BBX 5 8 1 0
BITMAP
F8
30
20
70
18
18
D8
70
ENDCHAR
STARTCHAR four
ENCODING 52
SWIDTH 545 0
DWIDTH 6 0
BBX 5 8 1 0
BITMAP
18
38
78
D8
D8
F8
18
18
ENDCHAR
STARTCHAR five
ENCODING 53
SWIDTH 545 0
DWIDTH 6 0
BBX 5 8 1 0
BITMAP
F8
C0
F0
18
18
18
D8
70
ENDCHAR
STARTCHAR six
ENCODING 54
SWIDTH 545 0
DWIDTH 6 0
BBX 5 8 1 0
BITMAP
70
C0
C0
F0
D8
D8
D8
70
ENDCHAR
STARTCHAR seven
ENCODING 55
SWIDTH 545 0
DWIDTH 6 0
BBX 5 8 1 0
BITMAP
F8
18
18
30
60
60
60
60
ENDCHAR
STARTCHAR eight
ENCODING 56
SWIDTH 545 0
DWIDTH 6 0
BBX 5 8 1 0
BITMAP
70
D8
D8
70
D8
D8
D8
70
ENDCHAR
STARTCHAR nine
ENCODING 57
SWIDTH 545 0
DWIDTH 6 0
BBX 5 8 1 0
BITMAP
70
D8
D8
D8
78
18
18
70
ENDCHAR
STARTCHAR colon
ENCODING 58
SWIDTH 272 0
DWIDTH 3 0
BBX 2 6 1 0
BITMAP
C0
C0
00
00
C0
C0
ENDCHAR
STARTCHAR semicolon
ENCODING 59
SWIDTH 272 0
DWIDTH 3 0
BBX 2 8 1 -2
BITMAP
C0
C0
00
00
C0
C0
40
80
ENDCHAR
STARTCHAR less
ENCODING 60
SWIDTH 500 0
DWIDTH 6 0
BBX 5 7 1 1
BITMAP
18
30
60
C0
60
30
18
ENDCHAR
STARTCHAR equal
ENCODING 61
SWIDTH 545 0
DWIDTH 6 0
BBX 5 3 1 3
BITMAP
F8
00
F8
ENDCHAR
STARTCHAR greater
ENCODING 62
SWIDTH 500 0
DWIDTH 6 0
BBX 5 7 1 1
BITMAP
C0
60
30
18
30
60
C0
ENDCHAR
STARTCHAR question
ENCODING 63
SWIDTH 545 0
DWIDTH 6 0
BBX 5 8 1 0
BITMAP
70
98
18
30
60
60
00
60
ENDCHAR
STARTCHAR at
ENCODING 64
SWIDTH 818 0
DWIDTH 9 0
BBX 8 8 1 0
BITMAP
3C
42
9D
A5
A5
9A
40
3E
ENDCHAR
STARTCHAR A
ENCODING 65
SWIDTH 545 0
DWIDTH 6 0
BBX 5 8 1 0
BITMAP
70
D8
D8
D8
F8
D8
D8
D8
ENDCHAR
STARTCHAR B
ENCODING 66
SWIDTH 545 0
DWIDTH 6 0
BBX 5 8 1 0
BITMAP
F0
D8
D8
F0
D8
D8
D8
F0
ENDCHAR
STARTCHAR C
ENCODING 67
SWIDTH 545 0
DWIDTH 6 0
BBX 5 8 1 0
BITMAP
70
C8
C0
C0
C0
C0
D8
70
ENDCHAR
STARTCHAR D
ENCODING 68
SWIDTH 545 0
DWIDTH 6 0
BBX 5 8 1 0
BITMAP
F0
D8
D8
D8
D8
D8
D8
F0
ENDCHAR
STARTCHAR E
ENCODING 69
SWIDTH 545 0
DWIDTH 6 0
BBX 5 8 1 0
BITMAP
F8
C0
C0
F0
C0
C0
C0
F8
ENDCHAR
STARTCHAR F
ENCODING 70
SWIDTH 2160 0
DWIDTH 6 0
BBX 5 8 1 0
BITMAP
F8
C0
C0
F0
C0
C0
C0
C0
ENDCHAR
STARTCHAR G
ENCODING 71
SWIDTH 545 0
DWIDTH 6 0
BBX 5 8 1 0
BITMAP
70
D8
C0
C0
D8
D8
D8
78
ENDCHAR
STARTCHAR H
ENCODING 72
SWIDTH 545 0
DWIDTH 6 0
BBX 5 8 1 0
BITMAP
D8
D8
D8
F8
D8
D8
D8
D8
ENDCHAR
STARTCHAR I
ENCODING 73
SWIDTH 272 0
DWIDTH 3 0
BBX 2 8 1 0
BITMAP
C0
C0
C0
C0
C0
C0
C0
C0
ENDCHAR
STARTCHAR J
ENCODING 74
SWIDTH 545 0
DWIDTH 6 0
BBX 5 8 1 0
BITMAP
18
18
18
18
18
D8
D8
70
ENDCHAR
STARTCHAR K
ENCODING 75
SWIDTH 636 0
DWIDTH 7 0
BBX 6 8 1 0
BITMAP
CC
D8
F0
E0
F0
D8
CC
CC
ENDCHAR
STARTCHAR L
ENCODING 76
SWIDTH 545 0
DWIDTH 6 0
BBX 5 8 1 0
BITMAP
C0
C0
C0
C0
C0
C0
C0
F8
ENDCHAR
STARTCHAR M
ENCODING 77
SWIDTH 818 0
DWIDTH 9 0
BBX 8 8 1 0
BITMAP
81
C3
E7
FF
BB
93
83
83
ENDCHAR
STARTCHAR N
ENCODING 78
SWIDTH 636 0
DWIDTH 7 0
BBX 6 8 1 0
BITMAP
84
C4
E4
F4
BC
9C
8C
84
ENDCHAR
STARTCHAR O
ENCODING 79
SWIDTH 545 0
DWIDTH 6 0
BBX 5 8 1 0
BITMAP
70
D8
D8
D8
D8
D8
D8
70
ENDCHAR
STARTCHAR P
ENCODING 80
SWIDTH 545 0
DWIDTH 6 0
BBX 5 8 1 0
BITMAP
F0
D8
D8
D8
F0
C0
C0
C0
ENDCHAR
STARTCHAR Q
ENCODING 81
SWIDTH 545 0
DWIDTH 6 0
BBX 5 9 1 -1
BITMAP
70
D8
D8
D8
D8
D8
D8
70
18
ENDCHAR
STARTCHAR R
ENCODING 82
SWIDTH 545 0
DWIDTH 6 0
BBX 5 8 1 0
BITMAP
F0
D8
D8
F0
D8
D8
D8
D8
ENDCHAR
STARTCHAR S
ENCODING 83
SWIDTH 545 0
DWIDTH 6 0
BBX 5 8 1 0
BITMAP
70
C8
C0
60
30
18
D8
70
ENDCHAR
STARTCHAR T
ENCODING 84
SWIDTH 636 0
DWIDTH 7 0
BBX 6 8 1 0
BITMAP
FC
30
30
30
30
30
30
30
ENDCHAR
STARTCHAR U
ENCODING 85
SWIDTH 545 0
DWIDTH 6 0
BBX 5 8 1 0
BITMAP
D8
D8
D8
D8
D8
D8
D8
70
ENDCHAR
STARTCHAR V
ENCODING 86
SWIDTH 545 0
DWIDTH 6 0
BBX 5 8 1 0
BITMAP
D8
D8
D8
D8
D8
D8
D0
E0
ENDCHAR
STARTCHAR W
ENCODING 87
SWIDTH 818 0
DWIDTH 9 0
BBX 8 8 1 0
BITMAP
DB
DB
DB
DB
DB
DB
DA
FC
ENDCHAR
STARTCHAR X
ENCODING 88
SWIDTH 545 0
DWIDTH 6 0
BBX 5 8 1 0
BITMAP
D8
D8
D8
70
D8
D8
D8
D8
ENDCHAR
STARTCHAR Y
ENCODING 89
SWIDTH 636 0
DWIDTH 7 0
BBX 6 8 1 0
BITMAP
CC
CC
CC
78
30
30
30
30
ENDCHAR
STARTCHAR Z
ENCODING 90
SWIDTH 636 0
DWIDTH 7 0
BBX 6 8 1 0
BITMAP
FC
0C
18
30
60
C0
C0
FC
ENDCHAR
STARTCHAR bracketleft
ENCODING 91
SWIDTH 363 0
DWIDTH 4 0
BBX 3 9 1 0
BITMAP
E0
C0
C0
C0
C0
C0
C0
C0
E0
ENDCHAR
STARTCHAR backslash
ENCODING 92
SWIDTH 545 0
DWIDTH 6 0
BBX 5 8 1 0
BITMAP
80
C0
40
60
20
30
10
18
ENDCHAR
STARTCHAR bracketright
ENCODING 93
SWIDTH 363 0
DWIDTH 4 0
BBX 3 9 1 0
BITMAP
E0
60
60
60
60
60
60
60
E0
ENDCHAR
STARTCHAR asciicircum
ENCODING 94
SWIDTH 454 0
DWIDTH 5 0
BBX 4 2 1 7
BITMAP
60
B0
ENDCHAR
STARTCHAR underscore
ENCODING 95
SWIDTH 636 0
DWIDTH 7 0
BBX 6 1 1 0
BITMAP
FC
ENDCHAR
STARTCHAR grave
ENCODING 96
SWIDTH 363 0
DWIDTH 4 0
BBX 3 2 1 7
BITMAP
C0
60
ENDCHAR
STARTCHAR a
ENCODING 97
SWIDTH 545 0
DWIDTH 6 0
BBX 5 6 1 0
BITMAP
70
98
78
D8
D8
78
ENDCHAR
STARTCHAR b
ENCODING 98
SWIDTH 545 0
DWIDTH 6 0
BBX 5 8 1 0
BITMAP
C0
C0
F0
D8
D8
D8
D8
F0
ENDCHAR
STARTCHAR c
ENCODING 99
SWIDTH 545 0
DWIDTH 6 0
BBX 5 6 1 0
BITMAP
70
C8
C0
C0
C8
70
ENDCHAR
STARTCHAR d
ENCODING 100
SWIDTH 545 0
DWIDTH 6 0
BBX 5 8 1 0
BITMAP
18
18
78
D8
D8
D8
D8
78
ENDCHAR
STARTCHAR e
ENCODING 101
SWIDTH 545 0
DWIDTH 6 0
BBX 5 6 1 0
BITMAP
70
D8
F8
C0
C8
70
ENDCHAR
STARTCHAR f
ENCODING 102
SWIDTH 545 0
DWIDTH 6 0
BBX 5 8 1 0
BITMAP
38
60
F0
60
60
60
60
60
ENDCHAR
STARTCHAR g
ENCODING 103
SWIDTH 545 0
DWIDTH 6 0
BBX 5 8 1 -2
BITMAP
78
D8
D8
D8
D8
78
18
F0
ENDCHAR
STARTCHAR h
ENCODING 104
SWIDTH 545 0
DWIDTH 6 0
BBX 5 8 1 0
BITMAP
C0
C0
F0
D8
D8
D8
D8
D8
ENDCHAR
STARTCHAR i
ENCODING 105
SWIDTH 272 0
DWIDTH 3 0
BBX 2 8 1 0
BITMAP
C0
00
C0
C0
C0
C0
C0
C0
ENDCHAR
STARTCHAR j
ENCODING 106
SWIDTH 363 0
DWIDTH 4 0
BBX 4 10 0 -2
BITMAP
30
00
30
30
30
30
30
30
30
E0
ENDCHAR
STARTCHAR k
ENCODING 107
SWIDTH 545 0
DWIDTH 6 0
BBX 5 8 1 0
BITMAP
C0
C0
D8
F0
E0
F0
D8
D8
ENDCHAR
STARTCHAR l
ENCODING 108
SWIDTH 272 0
DWIDTH 3 0
BBX 2 8 1 0
BITMAP
C0
C0
C0
C0
C0
C0
C0
C0
ENDCHAR
STARTCHAR m
ENCODING 109
SWIDTH 818 0
DWIDTH 9 0
BBX 8 6 1 0
BITMAP
FE
DB
DB
DB
DB
DB
ENDCHAR
STARTCHAR n
ENCODING 110
SWIDTH 545 0
DWIDTH 6 0
BBX 5 6 1 0
BITMAP
F0
D8
D8
D8
D8
D8
ENDCHAR
STARTCHAR o
ENCODING 111
SWIDTH 545 0
DWIDTH 6 0
BBX 5 6 1 0
BITMAP
70
D8
D8
D8
D8
70
ENDCHAR
STARTCHAR p
ENCODING 112
SWIDTH 545 0
DWIDTH 6 0
BBX 5 8 1 -2
BITMAP
F0
D8
D8
D8
D8
F0
C0
C0
ENDCHAR
STARTCHAR q
ENCODING 113
SWIDTH 545 0
DWIDTH 6 0
BBX 5 8 1 -2
BITMAP
78
D8
D8
D8
D8
78
18
18
ENDCHAR
STARTCHAR r
ENCODING 114
SWIDTH 454 0
DWIDTH 5 0
BBX 4 6 1 0
BITMAP
D0
F0
C0
C0
C0
C0
ENDCHAR
STARTCHAR s
ENCODING 115
SWIDTH 545 0
DWIDTH 6 0
BBX 5 6 1 0
BITMAP
70
C8
60
30
D8
70
ENDCHAR
STARTCHAR t
ENCODING 116
SWIDTH 454 0
DWIDTH 5 0
BBX 4 8 1 0
BITMAP
60
60
F0
60
60
60
60
30
ENDCHAR
STARTCHAR u
ENCODING 117
SWIDTH 545 0
DWIDTH 6 0
BBX 5 6 1 0
BITMAP
D8
D8
D8
D8
D8
78
ENDCHAR
STARTCHAR v
ENCODING 118
SWIDTH 545 0
DWIDTH 6 0
BBX 5 6 1 0
BITMAP
D8
D8
D8
D8
D0
E0
ENDCHAR
STARTCHAR w
ENCODING 119
SWIDTH 818 0
DWIDTH 9 0
BBX 8 6 1 0
BITMAP
DB
DB
DB
DB
DA
FC
ENDCHAR
STARTCHAR x
ENCODING 120
SWIDTH 545 0
DWIDTH 6 0
BBX 5 6 1 0
BITMAP
D8
D8
70
D8
D8
D8
ENDCHAR
STARTCHAR y
ENCODING 121
SWIDTH 545 0
DWIDTH 6 0
BBX 5 8 1 -2
BITMAP
D8
D8
D8
D8
D8
78
18
F0
ENDCHAR
STARTCHAR z
ENCODING 122
SWIDTH 545 0
DWIDTH 6 0
BBX 5 6 1 0
BITMAP
F8
18
30
60
C0
F8
ENDCHAR
STARTCHAR braceleft
ENCODING 123
SWIDTH 363 0
DWIDTH 4 0
BBX 3 9 1 0
BITMAP
20
40
40
40
80
40
40
40
20
ENDCHAR
STARTCHAR bar
ENCODING 124
SWIDTH 181 0
DWIDTH 2 0
BBX 1 9 1 0
BITMAP
80
80
80
80
80
80
80
80
80
ENDCHAR
STARTCHAR braceright
ENCODING 125
SWIDTH 363 0
DWIDTH 4 0
BBX 3 9 1 0
BITMAP
80
40
40
40
20
40
40
40
80
ENDCHAR
STARTCHAR asciitilde
ENCODING 126
SWIDTH 545 0
DWIDTH 6 0
BBX 5 2 1 6
BITMAP
68
B0
ENDCHAR
STARTCHAR exclamdown
ENCODING 161
SWIDTH 272 0
DWIDTH 3 0
BBX 2 8 1 0
BITMAP
C0
00
C0
C0
C0
C0
C0
C0
ENDCHAR
STARTCHAR cent
ENCODING 162
SWIDTH 545 0
DWIDTH 6 0
BBX 5 10 1 -2
BITMAP
20
20
70
C8
C0
C0
C8
70
20
20
ENDCHAR
STARTCHAR sterling
ENCODING 163
SWIDTH 727 0
DWIDTH 8 0
BBX 7 8 1 0
BITMAP
1C
32
30
78
30
30
72
DE
ENDCHAR
STARTCHAR currency
ENCODING 164
SWIDTH 545 0
DWIDTH 6 0
BBX 5 5 1 2
BITMAP
D8
70
50
70
D8
ENDCHAR
STARTCHAR yen
ENCODING 165
SWIDTH 636 0
DWIDTH 7 0
BBX 6 8 1 0
BITMAP
CC
CC
78
FC
30
FC
30
30
ENDCHAR
STARTCHAR brokenbar
ENCODING 166
SWIDTH 181 0
DWIDTH 2 0
BBX 1 9 1 0
BITMAP
80
80
80
00
00
00
80
80
80
ENDCHAR
STARTCHAR section
ENCODING 167
SWIDTH 545 0
DWIDTH 6 0
BBX 5 10 1 -2
BITMAP
70
C8
C0
70
D8
D8
70
38
98
70
ENDCHAR
STARTCHAR dieresis
ENCODING 168
SWIDTH 454 0
DWIDTH 5 0
BBX 4 1 1 8
BITMAP
90
ENDCHAR
STARTCHAR copyright
ENCODING 169
SWIDTH 909 0
DWIDTH 10 0
BBX 9 9 1 0
BITMAP
3E00
4100
9C80
B280
B080
B280
9C80
4100
3E00
ENDCHAR
STARTCHAR ordfeminine
ENCODING 170
SWIDTH 454 0
DWIDTH 5 0
BBX 4 6 1 2
BITMAP
E0
10
F0
D0
00
F0
ENDCHAR
STARTCHAR guillemotleft
ENCODING 171
SWIDTH 636 0
DWIDTH 7 0
BBX 6 5 1 2
BITMAP
24
48
90
48
24
ENDCHAR
STARTCHAR logicalnot
ENCODING 172
SWIDTH 545 0
DWIDTH 6 0
BBX 5 3 1 3
BITMAP
F8
08
08
ENDCHAR
STARTCHAR uni00AD
ENCODING 173
SWIDTH 454 0
DWIDTH 5 0
BBX 4 1 1 4
BITMAP
F0
ENDCHAR
STARTCHAR registered
ENCODING 174
SWIDTH 909 0
DWIDTH 10 0
BBX 9 9 1 0
BITMAP
3E00
4100
BC80
B680
BC80
B680
B680
4100
3E00
ENDCHAR
STARTCHAR macron
ENCODING 175
SWIDTH 636 0
DWIDTH 7 0
BBX 7 1 0 8
BITMAP
FE
ENDCHAR
STARTCHAR degree
ENCODING 176
SWIDTH 454 0
DWIDTH 5 0
BBX 4 3 1 5
BITMAP
60
B0
60
ENDCHAR
STARTCHAR plusminus
ENCODING 177
SWIDTH 545 0
DWIDTH 6 0
BBX 5 7 1 1
BITMAP
20
20
F8
20
20
00
F8
ENDCHAR
STARTCHAR uni00B2
ENCODING 178
SWIDTH 454 0
DWIDTH 5 0
BBX 4 4 1 4
BITMAP
E0
30
60
F0
ENDCHAR
STARTCHAR uni00B3
ENCODING 179
SWIDTH 454 0
DWIDTH 5 0
BBX 4 4 1 4
BITMAP
F0
60
30
E0
ENDCHAR
STARTCHAR acute
ENCODING 180
SWIDTH 363 0
DWIDTH 4 0
BBX 3 2 1 7
BITMAP
60
C0
ENDCHAR
STARTCHAR uni00B5
ENCODING 181
SWIDTH 545 0
DWIDTH 6 0
BBX 5 8 1 -2
BITMAP
D8
D8
D8
D8
D8
E8
C0
C0
ENDCHAR
STARTCHAR paragraph
ENCODING 182
SWIDTH 818 0
DWIDTH 9 0
BBX 8 10 1 -1
BITMAP
7F
F6
F6
F6
76
36
36
36
36
36
ENDCHAR
STARTCHAR periodcentered
ENCODING 183
SWIDTH 272 0
DWIDTH 3 0
BBX 2 2 1 3
BITMAP
C0
C0
ENDCHAR
STARTCHAR cedilla
ENCODING 184
SWIDTH 363 0
DWIDTH 4 0
BBX 3 3 1 -2
BITMAP
40
20
C0
ENDCHAR
STARTCHAR uni00B9
ENCODING 185
SWIDTH 363 0
DWIDTH 4 0
BBX 2 4 1 4
BITMAP
40
C0
40
40
ENDCHAR
STARTCHAR ordmasculine
ENCODING 186
SWIDTH 454 0
DWIDTH 5 0
BBX 4 6 1 2
BITMAP
60
90
90
60
00
F0
ENDCHAR
STARTCHAR guillemotright
ENCODING 187
SWIDTH 636 0
DWIDTH 7 0
BBX 6 5 1 2
BITMAP
90
48
24
48
90
ENDCHAR
STARTCHAR onequarter
ENCODING 188
SWIDTH 818 0
DWIDTH 9 0
BBX 8 9 1 0
BITMAP
62
E2
64
68
08
13
27
2F
43
ENDCHAR
STARTCHAR onehalf
ENCODING 189
SWIDTH 818 0
DWIDTH 9 0
BBX 8 9 1 0
BITMAP
62
E2
64
68
08
1E
23
26
4F
ENDCHAR
STARTCHAR threequarters
ENCODING 190
SWIDTH 818 0
DWIDTH 9 0
BBX 8 9 1 0
BITMAP
F2
62
34
E8
08
13
27
2F
43
ENDCHAR
STARTCHAR questiondown
ENCODING 191
SWIDTH 545 0
DWIDTH 6 0
BBX 5 8 1 0
BITMAP
30
00
30
30
60
C0
C8
70
ENDCHAR
STARTCHAR Agrave
ENCODING 192
SWIDTH 545 0
DWIDTH 6 0
BBX 5 9 1 0
BITMAP
60
20
70
D8
D8
F8
D8
D8
D8
ENDCHAR
STARTCHAR Aacute
ENCODING 193
SWIDTH 545 0
DWIDTH 6 0
BBX 5 9 1 0
BITMAP
30
20
70
D8
D8
F8
D8
D8
D8
ENDCHAR
STARTCHAR Acircumflex
ENCODING 194
SWIDTH 545 0
DWIDTH 6 0
BBX 5 9 1 0
BITMAP
70
88
70
D8
D8
F8
D8
D8
D8
ENDCHAR
STARTCHAR Atilde
ENCODING 195
SWIDTH 545 0
DWIDTH 6 0
BBX 5 9 1 0
BITMAP
68
B0
70
D8
D8
F8
D8
D8
D8
ENDCHAR
STARTCHAR Adieresis
ENCODING 196
SWIDTH 545 0
DWIDTH 6 0
BBX 5 9 1 0
BITMAP
50
00
70
D8
D8
F8
D8
D8
D8
ENDCHAR
STARTCHAR Aring
ENCODING 197
SWIDTH 545 0
DWIDTH 6 0
BBX 5 9 1 0
BITMAP
30
58
70
D8
D8
F8
D8
D8
D8
ENDCHAR
STARTCHAR AE
ENCODING 198
SWIDTH 818 0
DWIDTH 9 0
BBX 8 8 1 0
BITMAP
7F
D8
D8
DE
F8
D8
D8
DF
ENDCHAR
STARTCHAR Ccedilla
ENCODING 199
SWIDTH 545 0
DWIDTH 6 0
BBX 5 10 1 -2
BITMAP
70
C8
C0
C0
C0
C0
D8
70
20
C0
ENDCHAR
STARTCHAR Egrave
ENCODING 200
SWIDTH 545 0
DWIDTH 6 0
BBX 5 9 1 0
BITMAP
60
20
F8
C0
C0
F0
C0
C0
F8
ENDCHAR
STARTCHAR Eacute
ENCODING 201
SWIDTH 545 0
DWIDTH 6 0
BBX 5 9 1 0
BITMAP
30
20
F8
C0
C0
F0
C0
C0
F8
ENDCHAR
STARTCHAR Ecircumflex
ENCODING 202
SWIDTH 545 0
DWIDTH 6 0
BBX 5 9 1 0
BITMAP
70
88
F8
C0
C0
F0
C0
C0
F8
ENDCHAR
STARTCHAR Edieresis
ENCODING 203
SWIDTH 545 0
DWIDTH 6 0
BBX 5 9 1 0
BITMAP
50
00
F8
C0
C0
F0
C0
C0
F8
ENDCHAR
STARTCHAR Igrave
ENCODING 204
SWIDTH 272 0
DWIDTH 3 0
BBX 2 9 1 0
BITMAP
C0
40
C0
C0
C0
C0
C0
C0
C0
ENDCHAR
STARTCHAR Iacute
ENCODING 205
SWIDTH 272 0
DWIDTH 3 0
BBX 2 9 1 0
BITMAP
C0
80
C0
C0
C0
C0
C0
C0
C0
ENDCHAR
STARTCHAR Icircumflex
ENCODING 206
SWIDTH 454 0
DWIDTH 5 0
BBX 4 9 1 0
BITMAP
60
90
60
60
60
60
60
60
60
ENDCHAR
STARTCHAR Idieresis
ENCODING 207
SWIDTH 454 0
DWIDTH 5 0
BBX 4 9 1 0
BITMAP
90
00
60
60
60
60
60
60
60
ENDCHAR
STARTCHAR Eth
ENCODING 208
SWIDTH 636 0
DWIDTH 7 0
BBX 6 8 1 0
BITMAP
78
6C
6C
EC
6C
6C
6C
78
ENDCHAR
STARTCHAR Ntilde
ENCODING 209
SWIDTH 545 0
DWIDTH 6 0
BBX 5 9 1 0
BITMAP
68
B0
88
C8
E8
F8
B8
98
88
ENDCHAR
STARTCHAR Ograve
ENCODING 210
SWIDTH 545 0
DWIDTH 6 0
BBX 5 9 1 0
BITMAP
60
20
70
D8
D8
D8
D8
D8
70
ENDCHAR
STARTCHAR Oacute
ENCODING 211
SWIDTH 545 0
DWIDTH 6 0
BBX 5 9 1 0
BITMAP
30
20
70
D8
D8
D8
D8
D8
70
ENDCHAR
STARTCHAR Ocircumflex
ENCODING 212
SWIDTH 545 0
DWIDTH 6 0
BBX 5 9 1 0
BITMAP
70
88
70
D8
D8
D8
D8
D8
70
ENDCHAR
STARTCHAR Otilde
ENCODING 213
SWIDTH 545 0
DWIDTH 6 0
BBX 5 9 1 0
BITMAP
68
B0
70
D8
D8
D8
D8
D8
70
ENDCHAR
STARTCHAR Odieresis
ENCODING 214
SWIDTH 545 0
DWIDTH 6 0
BBX 5 9 1 0
BITMAP
50
00
70
D8
D8
D8
D8
D8
70
ENDCHAR
STARTCHAR multiply
ENCODING 215
SWIDTH 545 0
DWIDTH 6 0
BBX 5 5 1 2
BITMAP
88
50
20
50
88
ENDCHAR
STARTCHAR Oslash
ENCODING 216
SWIDTH 545 0
DWIDTH 6 0
BBX 5 9 1 0
BITMAP
08
70
D8
D8
F8
D8
D8
70
80
ENDCHAR
STARTCHAR Ugrave
ENCODING 217
SWIDTH 545 0
DWIDTH 6 0
BBX 5 9 1 0
BITMAP
60
20
D8
D8
D8
D8
D8
D8
70
ENDCHAR
STARTCHAR Uacute
ENCODING 218
SWIDTH 545 0
DWIDTH 6 0
BBX 5 9 1 0
BITMAP
30
20
D8
D8
D8
D8
D8
D8
70
ENDCHAR
STARTCHAR Ucircumflex
ENCODING 219
SWIDTH 545 0
DWIDTH 6 0
BBX 5 9 1 0
BITMAP
70
88
D8
D8
D8
D8
D8
D8
70
ENDCHAR
STARTCHAR Udieresis
ENCODING 220
SWIDTH 545 0
DWIDTH 6 0
BBX 5 9 1 0
BITMAP
50
00
D8
D8
D8
D8
D8
D8
70
ENDCHAR
STARTCHAR Yacute
ENCODING 221
SWIDTH 636 0
DWIDTH 7 0
BBX 6 9 1 0
BITMAP
30
20
CC
CC
CC
78
30
30
30
ENDCHAR
STARTCHAR Thorn
ENCODING 222
SWIDTH 545 0
DWIDTH 6 0
BBX 5 8 1 0
BITMAP
C0
C0
F0
D8
D8
F0
C0
C0
ENDCHAR
STARTCHAR germandbls
ENCODING 223
SWIDTH 545 0
DWIDTH 6 0
BBX 5 10 1 -2
BITMAP
70
D8
D8
F0
D8
D8
D8
F0
C0
80
ENDCHAR
STARTCHAR agrave
ENCODING 224
SWIDTH 545 0
DWIDTH 6 0
BBX 5 9 1 0
BITMAP
60
20
00
70
98
78
D8
D8
78
ENDCHAR
STARTCHAR aacute
ENCODING 225
SWIDTH 545 0
DWIDTH 6 0
BBX 5 9 1 0
BITMAP
30
20
00
70
98
78
D8
D8
78
ENDCHAR
STARTCHAR acircumflex
ENCODING 226
SWIDTH 545 0
DWIDTH 6 0
BBX 5 9 1 0
BITMAP
30
58
00
70
98
78
D8
D8
78
ENDCHAR
STARTCHAR atilde
ENCODING 227
SWIDTH 545 0
DWIDTH 6 0
BBX 5 9 1 0
BITMAP
68
B0
00
70
98
78
D8
D8
78
ENDCHAR
STARTCHAR adieresis
ENCODING 228
SWIDTH 545 0
DWIDTH 6 0
BBX 5 8 1 0
BITMAP
50
00
70
98
78
D8
D8
78
ENDCHAR
STARTCHAR aring
ENCODING 229
SWIDTH 545 0
DWIDTH 6 0
BBX 5 9 1 0
BITMAP
30
58
30
70
98
78
D8
D8
78
ENDCHAR
STARTCHAR ae
ENCODING 230
SWIDTH 909 0
DWIDTH 10 0
BBX 9 6 1 0
BITMAP
7700
9D80
7F80
DC00
DC80
7700
ENDCHAR
STARTCHAR ccedilla
ENCODING 231
SWIDTH 545 0
DWIDTH 6 0
BBX 5 8 1 -2
BITMAP
70
C8
C0
C0
C8
70
20
C0
ENDCHAR
STARTCHAR egrave
ENCODING 232
SWIDTH 545 0
DWIDTH 6 0
BBX 5 9 1 0
BITMAP
60
20
00
70
D8
F8
C0
C8
70
ENDCHAR
STARTCHAR eacute
ENCODING 233
SWIDTH 545 0
DWIDTH 6 0
BBX 5 9 1 0
BITMAP
30
20
00
70
D8
F8
C0
C8
70
ENDCHAR
STARTCHAR ecircumflex
ENCODING 234
SWIDTH 545 0
DWIDTH 6 0
BBX 5 9 1 0
BITMAP
30
58
00
70
D8
F8
C0
C8
70
ENDCHAR
STARTCHAR edieresis
ENCODING 235
SWIDTH 545 0
DWIDTH 6 0
BBX 5 8 1 0
BITMAP
50
00
70
D8
F8
C0
C8
70
ENDCHAR
STARTCHAR igrave
ENCODING 236
SWIDTH 272 0
DWIDTH 3 0
BBX 2 9 1 0
BITMAP
C0
40
00
C0
C0
C0
C0
C0
C0
ENDCHAR
STARTCHAR iacute
ENCODING 237
SWIDTH 272 0
DWIDTH 3 0
BBX 2 9 1 0
BITMAP
C0
80
00
C0
C0
C0
C0
C0
C0
ENDCHAR
STARTCHAR icircumflex
ENCODING 238
SWIDTH 307 0
DWIDTH 4 0
BBX 4 9 0 0
BITMAP
60
B0
00
60
60
60
60
60
60
ENDCHAR
STARTCHAR idieresis
ENCODING 239
SWIDTH 307 0
DWIDTH 4 0
BBX 4 8 0 0
BITMAP
90
00
60
60
60
60
60
60
ENDCHAR
STARTCHAR eth
ENCODING 240
SWIDTH 545 0
DWIDTH 6 0
BBX 5 9 1 0
BITMAP
68
30
58
18
78
D8
D8
D8
70
ENDCHAR
STARTCHAR ntilde
ENCODING 241
SWIDTH 545 0
DWIDTH 6 0
BBX 5 9 1 0
BITMAP
68
B0
00
F0
D8
D8
D8
D8
D8
ENDCHAR
STARTCHAR ograve
ENCODING 242
SWIDTH 545 0
DWIDTH 6 0
BBX 5 9 1 0
BITMAP
60
20
00
70
D8
D8
D8
D8
70
ENDCHAR
STARTCHAR oacute
ENCODING 243
SWIDTH 545 0
DWIDTH 6 0
BBX 5 9 1 0
BITMAP
30
20
00
70
D8
D8
D8
D8
70
ENDCHAR
STARTCHAR ocircumflex
ENCODING 244
SWIDTH 545 0
DWIDTH 6 0
BBX 5 9 1 0
BITMAP
30
58
00
70
D8
D8
D8
D8
70
ENDCHAR
STARTCHAR otilde
ENCODING 245
SWIDTH 545 0
DWIDTH 6 0
BBX 5 9 1 0
BITMAP
68
B0
00
70
D8
D8
D8
D8
70
ENDCHAR
STARTCHAR odieresis
ENCODING 246
SWIDTH 545 0
DWIDTH 6 0
BBX 5 8 1 0
BITMAP
50
00
70
D8
D8
D8
D8
70
ENDCHAR
STARTCHAR divide
ENCODING 247
SWIDTH 545 0
DWIDTH 6 0
BBX 5 5 1 1
BITMAP
20
00
F8
00
20
ENDCHAR
STARTCHAR oslash
ENCODING 248
SWIDTH 545 0
DWIDTH 6 0
BBX 5 9 1 -1
BITMAP
08
10
70
D8
F8
D8
D8
70
80
ENDCHAR
STARTCHAR ugrave
ENCODING 249
SWIDTH 545 0
DWIDTH 6 0
BBX 5 9 1 0
BITMAP
60
20
00
D8
D8
D8
D8
D8
78
ENDCHAR
STARTCHAR uacute
ENCODING 250
SWIDTH 545 0
DWIDTH 6 0
BBX 5 9 1 0
BITMAP
30
20
00
D8
D8
D8
D8
D8
78
ENDCHAR
STARTCHAR ucircumflex
ENCODING 251
SWIDTH 545 0
DWIDTH 6 0
BBX 5 9 1 0
BITMAP
30
58
00
D8
D8
D8
D8
D8
78
ENDCHAR
STARTCHAR udieresis
ENCODING 252
SWIDTH 545 0
DWIDTH 6 0
BBX 5 8 1 0
BITMAP
50
00
D8
D8
D8
D8
D8
78
ENDCHAR
STARTCHAR yacute
ENCODING 253
SWIDTH 545 0
DWIDTH 6 0
BBX 5 10 1 -1
BITMAP
30
20
00
D8
D8
D8
D8
78
18
F0
ENDCHAR
STARTCHAR thorn
ENCODING 254
SWIDTH 545 0
DWIDTH 6 0
BBX 5 10 1 -2
BITMAP
C0
C0
F0
D8
D8
D8
D8
F0
C0
C0
ENDCHAR
STARTCHAR ydieresis
ENCODING 255
SWIDTH 545 0
DWIDTH 6 0
BBX 5 10 1 -2
BITMAP
50
00
D8
D8
D8
D8
D8
78
18
F0
ENDCHAR
STARTCHAR tonos
ENCODING 900
SWIDTH 272 0
DWIDTH 3 0
BBX 2 2 1 7
BITMAP
C0
80
ENDCHAR
STARTCHAR dieresistonos
ENCODING 901
SWIDTH 454 0
DWIDTH 5 0
BBX 4 3 1 6
BITMAP
60
40
90
ENDCHAR
STARTCHAR Alphatonos
ENCODING 902
SWIDTH 727 0
DWIDTH 8 0
BBX 7 9 1 0
BITMAP
80
9C
36
36
36
3E
36
36
36
ENDCHAR
STARTCHAR anoteleia
ENCODING 903
SWIDTH 272 0
DWIDTH 3 0
BBX 2 2 1 3
BITMAP
C0
C0
ENDCHAR
STARTCHAR Epsilontonos
ENCODING 904
SWIDTH 727 0
DWIDTH 8 0
BBX 7 9 1 0
BITMAP
80
BE
30
30
3C
30
30
30
3E
ENDCHAR
STARTCHAR Etatonos
ENCODING 905
SWIDTH 727 0
DWIDTH 8 0
BBX 7 9 1 0
BITMAP
80
B6
36
36
3E
36
36
36
36
ENDCHAR
STARTCHAR Iotatonos
ENCODING 906
SWIDTH 454 0
DWIDTH 5 0
BBX 4 9 1 0
BITMAP
80
B0
30
30
30
30
30
30
30
ENDCHAR
STARTCHAR Omicrontonos
ENCODING 908
SWIDTH 727 0
DWIDTH 8 0
BBX 7 9 1 0
BITMAP
80
9C
36
36
36
36
36
36
1C
ENDCHAR
STARTCHAR Upsilontonos
ENCODING 910
SWIDTH 818 0
DWIDTH 9 0
BBX 8 9 1 0
BITMAP
80
B3
33
33
1E
0C
0C
0C
0C
ENDCHAR
STARTCHAR Omegatonos
ENCODING 911
SWIDTH 909 0
DWIDTH 10 0
BBX 9 9 1 0
BITMAP
8000
9F00
3180
3180
3180
3180
1B00
0A00
3B80
ENDCHAR
STARTCHAR iotadieresistonos
ENCODING 912
SWIDTH 1000 0
DWIDTH 4 0
BBX 4 9 0 0
BITMAP
30
20
90
60
60
60
60
60
60
ENDCHAR
STARTCHAR Alpha
ENCODING 913
SWIDTH 545 0
DWIDTH 6 0
BBX 5 8 1 0
BITMAP
70
D8
D8
D8
F8
D8
D8
D8
ENDCHAR
STARTCHAR Beta
ENCODING 914
SWIDTH 545 0
DWIDTH 6 0
BBX 5 8 1 0
BITMAP
F0
D8
D8
F0
D8
D8
D8
F0
ENDCHAR
STARTCHAR Gamma
ENCODING 915
SWIDTH 1000 0
DWIDTH 6 0
BBX 5 8 1 0
BITMAP
F8
C0
C0
C0
C0
C0
C0
C0
ENDCHAR
STARTCHAR Delta
ENCODING 916
SWIDTH 818 0
DWIDTH 9 0
BBX 8 8 1 0
BITMAP
18
18
3C
2C
6E
46
C7
FF
ENDCHAR
STARTCHAR Epsilon
ENCODING 917
SWIDTH 545 0
DWIDTH 6 0
BBX 5 8 1 0
BITMAP
F8
C0
C0
F0
C0
C0
C0
F8
ENDCHAR
STARTCHAR Zeta
ENCODING 918
SWIDTH 636 0
DWIDTH 7 0
BBX 6 8 1 0
BITMAP
FC
0C
18
30
60
C0
C0
FC
ENDCHAR
STARTCHAR Eta
ENCODING 919
SWIDTH 545 0
DWIDTH 6 0
BBX 5 8 1 0
BITMAP
D8
D8
D8
F8
D8
D8
D8
D8
ENDCHAR
STARTCHAR Theta
ENCODING 920
SWIDTH 636 0
DWIDTH 7 0
BBX 6 8 1 0
BITMAP
78
CC
CC
FC
CC
CC
CC
78
ENDCHAR
STARTCHAR Iota
ENCODING 921
SWIDTH 272 0
DWIDTH 3 0
BBX 2 8 1 0
BITMAP
C0
C0
C0
C0
C0
C0
C0
C0
ENDCHAR
STARTCHAR Kappa
ENCODING 922
SWIDTH 636 0
DWIDTH 7 0
BBX 6 8 1 0
BITMAP
CC
D8
F0
E0
F0
D8
CC
CC
ENDCHAR
STARTCHAR Lambda
ENCODING 923
SWIDTH 818 0
DWIDTH 9 0
BBX 8 8 1 0
BITMAP
18
18
3C
2C
6E
46
C7
C3
ENDCHAR
STARTCHAR Mu
ENCODING 924
SWIDTH 818 0
DWIDTH 9 0
BBX 8 8 1 0
BITMAP
81
C3
E7
FF
BB
93
83
83
ENDCHAR
STARTCHAR Nu
ENCODING 925
SWIDTH 636 0
DWIDTH 7 0
BBX 6 8 1 0
BITMAP
84
C4
E4
F4
BC
9C
8C
84
ENDCHAR
STARTCHAR Xi
ENCODING 926
SWIDTH 545 0
DWIDTH 6 0
BBX 5 8 1 0
BITMAP
F8
00
00
70
00
00
00
F8
ENDCHAR
STARTCHAR Omicron
ENCODING 927
SWIDTH 545 0
DWIDTH 6 0
BBX 5 8 1 0
BITMAP
70
D8
D8
D8
D8
D8
D8
70
ENDCHAR
STARTCHAR Pi
ENCODING 928
SWIDTH 545 0
DWIDTH 6 0
BBX 5 8 1 0
BITMAP
F8
D8
D8
D8
D8
D8
D8
D8
ENDCHAR
STARTCHAR Rho
ENCODING 929
SWIDTH 545 0
DWIDTH 6 0
BBX 5 8 1 0
BITMAP
F0
D8
D8
D8
F0
C0
C0
C0
ENDCHAR
STARTCHAR Sigma
ENCODING 931
SWIDTH 545 0
DWIDTH 6 0
BBX 5 8 1 0
BITMAP
F8
C0
60
30
60
C0
C8
F8
ENDCHAR
STARTCHAR Tau
ENCODING 932
SWIDTH 636 0
DWIDTH 7 0
BBX 6 8 1 0
BITMAP
FC
30
30
30
30
30
30
30
ENDCHAR
STARTCHAR Upsilon
ENCODING 933
SWIDTH 636 0
DWIDTH 7 0
BBX 6 8 1 0
BITMAP
CC
CC
CC
78
30
30
30
30
ENDCHAR
STARTCHAR Phi
ENCODING 934
SWIDTH 818 0
DWIDTH 9 0
BBX 8 8 1 0
BITMAP
18
7E
DB
DB
DB
DB
7E
18
ENDCHAR
STARTCHAR Chi
ENCODING 935
SWIDTH 545 0
DWIDTH 6 0
BBX 5 8 1 0
BITMAP
D8
D8
D8
70
D8
D8
D8
D8
ENDCHAR
STARTCHAR Psi
ENCODING 936
SWIDTH 818 0
DWIDTH 9 0
BBX 8 8 1 0
BITMAP
DB
DB
DB
DB
7E
18
18
18
ENDCHAR
STARTCHAR Omega
ENCODING 937
SWIDTH 727 0
DWIDTH 8 0
BBX 7 8 1 0
BITMAP
7C
C6
C6
C6
C6
6C
28
EE
ENDCHAR
STARTCHAR Iotadieresis
ENCODING 938
SWIDTH 1000 0
DWIDTH 4 0
BBX 4 9 0 0
BITMAP
90
00
60
60
60
60
60
60
60
ENDCHAR
STARTCHAR Upsilondieresis
ENCODING 939
SWIDTH 636 0
DWIDTH 7 0
BBX 6 9 1 0
BITMAP
48
00
CC
CC
CC
78
30
30
30
ENDCHAR
STARTCHAR alphatonos
ENCODING 940
SWIDTH 636 0
DWIDTH 7 0
BBX 6 9 1 0
BITMAP
30
20
00
6C
D8
D8
D8
D8
74
ENDCHAR
STARTCHAR epsilontonos
ENCODING 941
SWIDTH 545 0
DWIDTH 6 0
BBX 5 9 1 0
BITMAP
30
20
00
70
C8
60
C0
C8
70
ENDCHAR
STARTCHAR etatonos
ENCODING 942
SWIDTH 545 0
DWIDTH 6 0
BBX 5 11 1 -2
BITMAP
30
20
00
F0
D8
D8
D8
D8
D8
18
18
ENDCHAR
STARTCHAR iotatonos
ENCODING 943
SWIDTH 272 0
DWIDTH 3 0
BBX 2 9 1 0
BITMAP
C0
80
00
C0
C0
C0
C0
C0
C0
ENDCHAR
STARTCHAR upsilondieresistonos
ENCODING 944
SWIDTH 545 0
DWIDTH 6 0
BBX 5 9 1 0
BITMAP
30
20
88
00
D8
D8
D8
D8
70
ENDCHAR
STARTCHAR alpha
ENCODING 945
SWIDTH 636 0
DWIDTH 7 0
BBX 6 6 1 0
BITMAP
6C
D8
D8
D8
D8
74
ENDCHAR
STARTCHAR beta
ENCODING 946
SWIDTH 545 0
DWIDTH 6 0
BBX 5 10 1 -2
BITMAP
70
D8
D8
F0
D8
D8
D8
F0
C0
C0
ENDCHAR
STARTCHAR gamma
ENCODING 947
SWIDTH 636 0
DWIDTH 7 0
BBX 6 8 1 -2
BITMAP
CC
CC
CC
CC
CC
78
30
30
ENDCHAR
STARTCHAR delta
ENCODING 948
SWIDTH 545 0
DWIDTH 6 0
BBX 5 8 1 0
BITMAP
78
C0
70
D8
D8
D8
D8
70
ENDCHAR
STARTCHAR epsilon
ENCODING 949
SWIDTH 545 0
DWIDTH 6 0
BBX 5 6 1 0
BITMAP
70
C8
60
C0
C8
70
ENDCHAR
STARTCHAR zeta
ENCODING 950
SWIDTH 461 0
DWIDTH 6 0
BBX 5 10 1 -2
BITMAP
F0
20
40
C0
C0
C0
C0
70
18
30
ENDCHAR
STARTCHAR eta
ENCODING 951
SWIDTH 545 0
DWIDTH 6 0
BBX 5 7 1 -1
BITMAP
F0
D8
D8
D8
D8
D8
18
ENDCHAR
STARTCHAR theta
ENCODING 952
SWIDTH 545 0
DWIDTH 6 0
BBX 5 8 1 0
BITMAP
70
D8
D8
F8
D8
D8
D8
70
ENDCHAR
STARTCHAR iota
ENCODING 953
SWIDTH 272 0
DWIDTH 3 0
BBX 2 6 1 0
BITMAP
C0
C0
C0
C0
C0
C0
ENDCHAR
STARTCHAR kappa
ENCODING 954
SWIDTH 545 0
DWIDTH 6 0
BBX 5 6 1 0
BITMAP
D8
D8
F0
D0
D8
D8
ENDCHAR
STARTCHAR lambda
ENCODING 955
SWIDTH 636 0
DWIDTH 7 0
BBX 6 8 1 0
BITMAP
60
20
30
30
78
58
CC
CC
ENDCHAR
STARTCHAR mu
ENCODING 956
SWIDTH 545 0
DWIDTH 6 0
BBX 5 8 1 -2
BITMAP
D8
D8
D8
D8
D8
E8
C0
C0
ENDCHAR
STARTCHAR nu
ENCODING 957
SWIDTH 545 0
DWIDTH 6 0
BBX 5 6 1 0
BITMAP
D8
D8
D8
D8
D0
E0
ENDCHAR
STARTCHAR xi
ENCODING 958
SWIDTH 461 0
DWIDTH 6 0
BBX 5 10 1 -2
BITMAP
70
C0
C0
70
C0
C0
C0
70
18
30
ENDCHAR
STARTCHAR omicron
ENCODING 959
SWIDTH 545 0
DWIDTH 6 0
BBX 5 6 1 0
BITMAP
70
D8
D8
D8
D8
70
ENDCHAR
STARTCHAR pi
ENCODING 960
SWIDTH 727 0
DWIDTH 8 0
BBX 7 6 1 0
BITMAP
FE
6C
6C
6C
6C
6C
ENDCHAR
STARTCHAR rho
ENCODING 961
SWIDTH 545 0
DWIDTH 6 0
BBX 5 8 1 -2
BITMAP
70
D8
D8
D8
D8
F0
C0
C0
ENDCHAR
STARTCHAR sigma1
ENCODING 962
SWIDTH 461 0
DWIDTH 6 0
BBX 5 8 1 -2
BITMAP
70
C0
C0
C0
C0
70
18
30
ENDCHAR
STARTCHAR sigma
ENCODING 963
SWIDTH 636 0
DWIDTH 7 0
BBX 6 6 1 0
BITMAP
7C
D8
D8
D8
D8
70
ENDCHAR
STARTCHAR tau
ENCODING 964
SWIDTH 636 0
DWIDTH 7 0
BBX 6 6 1 0
BITMAP
FC
30
30
30
30
30
ENDCHAR
STARTCHAR upsilon
ENCODING 965
SWIDTH 545 0
DWIDTH 6 0
BBX 5 6 1 0
BITMAP
D8
D8
D8
D8
D8
70
ENDCHAR
STARTCHAR phi
ENCODING 966
SWIDTH 818 0
DWIDTH 9 0
BBX 8 10 1 -2
BITMAP
18
18
7E
DB
DB
DB
DB
7E
18
18
ENDCHAR
STARTCHAR chi
ENCODING 967
SWIDTH 545 0
DWIDTH 6 0
BBX 5 8 1 -2
BITMAP
D8
D8
D8
70
D8
D8
D8
D8
ENDCHAR
STARTCHAR psi
ENCODING 968
SWIDTH 818 0
DWIDTH 9 0
BBX 8 8 1 -2
BITMAP
DB
DB
DB
DB
DB
7E
18
18
ENDCHAR
STARTCHAR omega
ENCODING 969
SWIDTH 818 0
DWIDTH 9 0
BBX 8 6 1 0
BITMAP
66
C3
DB
DB
DB
6E
ENDCHAR
STARTCHAR iotadieresis
ENCODING 970
SWIDTH 1000 0
DWIDTH 4 0
BBX 4 8 0 0
BITMAP
90
00
60
60
60
60
60
60
ENDCHAR
STARTCHAR upsilondieresis
ENCODING 971
SWIDTH 545 0
DWIDTH 6 0
BBX 5 8 1 0
BITMAP
50
00
D8
D8
D8
D8
D8
70
ENDCHAR
STARTCHAR omicrontonos
ENCODING 972
SWIDTH 545 0
DWIDTH 6 0
BBX 5 9 1 0
BITMAP
30
20
00
70
D8
D8
D8
D8
70
ENDCHAR
STARTCHAR upsilontonos
ENCODING 973
SWIDTH 545 0
DWIDTH 6 0
BBX 5 9 1 0
BITMAP
30
20
00
D8
D8
D8
D8
D8
70
ENDCHAR
STARTCHAR omegatonos
ENCODING 974
SWIDTH 818 0
DWIDTH 9 0
BBX 8 9 1 0
BITMAP
0C
08
00
66
C3
DB
DB
DB
6E
ENDCHAR
STARTCHAR afii10023
ENCODING 1025
SWIDTH 545 0
DWIDTH 6 0
BBX 5 9 1 0
BITMAP
50
00
F8
C0
C0
F0
C0
C0
F8
ENDCHAR
STARTCHAR afii10017
ENCODING 1040
SWIDTH 545 0
DWIDTH 6 0
BBX 5 8 1 0
BITMAP
70
D8
D8
D8
F8
D8
D8
D8
ENDCHAR
STARTCHAR afii10018
ENCODING 1041
SWIDTH 545 0
DWIDTH 6 0
BBX 5 8 1 0
BITMAP
F8
C0
C0
F0
D8
D8
D8
F0
ENDCHAR
STARTCHAR afii10019
ENCODING 1042
SWIDTH 545 0
DWIDTH 6 0
BBX 5 8 1 0
BITMAP
F0
D8
D8
F0
D8
D8
D8
F0
ENDCHAR
STARTCHAR afii10020
ENCODING 1043
SWIDTH 1000 0
DWIDTH 6 0
BBX 5 8 1 0
BITMAP
F8
C0
C0
C0
C0
C0
C0
C0
ENDCHAR
STARTCHAR afii10021
ENCODING 1044
SWIDTH 727 0
DWIDTH 8 0
BBX 7 9 1 -1
BITMAP
3C
2C
6C
6C
6C
6C
6C
FE
C6
ENDCHAR
STARTCHAR afii10022
ENCODING 1045
SWIDTH 545 0
DWIDTH 6 0
BBX 5 8 1 0
BITMAP
F8
C0
C0
F0
C0
C0
C0
F8
ENDCHAR
STARTCHAR afii10024
ENCODING 1046
SWIDTH 818 0
DWIDTH 9 0
BBX 8 8 1 0
BITMAP
DB
DB
DB
7E
DB
DB
DB
DB
ENDCHAR
STARTCHAR afii10025
ENCODING 1047
SWIDTH 545 0
DWIDTH 6 0
BBX 5 8 1 0
BITMAP
70
D8
18
30
18
18
D8
70
ENDCHAR
STARTCHAR afii10026
ENCODING 1048
SWIDTH 636 0
DWIDTH 7 0
BBX 6 8 1 0
BITMAP
84
8C
9C
BC
F4
E4
C4
84
ENDCHAR
STARTCHAR afii10027
ENCODING 1049
SWIDTH 636 0
DWIDTH 7 0
BBX 6 9 1 0
BITMAP
58
B4
8C
9C
BC
F4
E4
C4
84
ENDCHAR
STARTCHAR afii10028
ENCODING 1050
SWIDTH 636 0
DWIDTH 7 0
BBX 6 8 1 0
BITMAP
CC
D8
F0
E0
F0
D8
CC
CC
ENDCHAR
STARTCHAR afii10029
ENCODING 1051
SWIDTH 545 0
DWIDTH 6 0
BBX 5 8 1 0
BITMAP
78
58
D8
D8
D8
D8
D8
D8
ENDCHAR
STARTCHAR afii10030
ENCODING 1052
SWIDTH 818 0
DWIDTH 9 0
BBX 8 8 1 0
BITMAP
81
C3
E7
FF
BB
93
83
83
ENDCHAR
STARTCHAR afii10031
ENCODING 1053
SWIDTH 545 0
DWIDTH 6 0
BBX 5 8 1 0
BITMAP
D8
D8
D8
F8
D8
D8
D8
D8
ENDCHAR
STARTCHAR afii10032
ENCODING 1054
SWIDTH 545 0
DWIDTH 6 0
BBX 5 8 1 0
BITMAP
70
D8
D8
D8
D8
D8
D8
70
ENDCHAR
STARTCHAR afii10033
ENCODING 1055
SWIDTH 545 0
DWIDTH 6 0
BBX 5 8 1 0
BITMAP
F8
D8
D8
D8
D8
D8
D8
D8
ENDCHAR
STARTCHAR afii10034
ENCODING 1056
SWIDTH 545 0
DWIDTH 6 0
BBX 5 8 1 0
BITMAP
F0
D8
D8
D8
F0
C0
C0
C0
ENDCHAR
STARTCHAR afii10035
ENCODING 1057
SWIDTH 545 0
DWIDTH 6 0
BBX 5 8 1 0
BITMAP
70
C8
C0
C0
C0
C0
C8
70
ENDCHAR
STARTCHAR afii10036
ENCODING 1058
SWIDTH 636 0
DWIDTH 7 0
BBX 6 8 1 0
BITMAP
FC
30
30
30
30
30
30
30
ENDCHAR
STARTCHAR afii10037
ENCODING 1059
SWIDTH 545 0
DWIDTH 6 0
BBX 5 8 1 0
BITMAP
D8
D8
D8
D8
78
18
98
70
ENDCHAR
STARTCHAR afii10038
ENCODING 1060
SWIDTH 818 0
DWIDTH 9 0
BBX 8 8 1 0
BITMAP
18
7E
DB
DB
DB
7E
18
18
ENDCHAR
STARTCHAR afii10039
ENCODING 1061
SWIDTH 545 0
DWIDTH 6 0
BBX 5 8 1 0
BITMAP
D8
D8
D8
70
D8
D8
D8
D8
ENDCHAR
STARTCHAR afii10040
ENCODING 1062
SWIDTH 636 0
DWIDTH 7 0
BBX 6 9 1 -1
BITMAP
D8
D8
D8
D8
D8
D8
D8
FC
04
ENDCHAR
STARTCHAR afii10041
ENCODING 1063
SWIDTH 545 0
DWIDTH 6 0
BBX 5 8 1 0
BITMAP
D8
D8
D8
D8
78
18
18
18
ENDCHAR
STARTCHAR afii10042
ENCODING 1064
SWIDTH 818 0
DWIDTH 9 0
BBX 8 8 1 0
BITMAP
DB
DB
DB
DB
DB
DB
DB
FF
ENDCHAR
STARTCHAR afii10043
ENCODING 1065
SWIDTH 909 0
DWIDTH 10 0
BBX 9 9 1 -1
BITMAP
DB00
DB00
DB00
DB00
DB00
DB00
DB00
FF80
0080
ENDCHAR
STARTCHAR afii10044
ENCODING 1066
SWIDTH 545 0
DWIDTH 6 0
BBX 6 8 0 0
BITMAP
E0
60
60
78
6C
6C
6C
78
ENDCHAR
STARTCHAR afii10045
ENCODING 1067
SWIDTH 727 0
DWIDTH 8 0
BBX 7 8 1 0
BITMAP
C6
C6
C6
F6
DE
DE
DE
F6
ENDCHAR
STARTCHAR afii10046
ENCODING 1068
SWIDTH 545 0
DWIDTH 6 0
BBX 5 8 1 0
BITMAP
C0
C0
C0
F0
D8
D8
D8
F0
ENDCHAR
STARTCHAR afii10047
ENCODING 1069
SWIDTH 545 0
DWIDTH 6 0
BBX 5 8 1 0
BITMAP
70
98
18
78
18
18
98
70
ENDCHAR
STARTCHAR afii10048
ENCODING 1070
SWIDTH 818 0
DWIDTH 9 0
BBX 8 8 1 0
BITMAP
CE
DB
DB
FB
DB
DB
DB
CE
ENDCHAR
STARTCHAR afii10049
ENCODING 1071
SWIDTH 545 0
DWIDTH 6 0
BBX 5 8 1 0
BITMAP
78
D8
D8
78
D8
D8
D8
D8
ENDCHAR
STARTCHAR afii10065
ENCODING 1072
SWIDTH 545 0
DWIDTH 6 0
BBX 5 6 1 0
BITMAP
70
98
78
D8
D8
78
ENDCHAR
STARTCHAR afii10066
ENCODING 1073
SWIDTH 545 0
DWIDTH 6 0
BBX 5 9 1 0
BITMAP
10
60
C0
F0
D8
D8
D8
D8
70
ENDCHAR
STARTCHAR afii10067
ENCODING 1074
SWIDTH 545 0
DWIDTH 6 0
BBX 5 6 1 0
BITMAP
F0
D8
F0
D8
D8
F0
ENDCHAR
STARTCHAR afii10068
ENCODING 1075
SWIDTH 454 0
DWIDTH 5 0
BBX 4 6 1 0
BITMAP
F0
C0
C0
C0
C0
C0
ENDCHAR
STARTCHAR afii10069
ENCODING 1076
SWIDTH 727 0
DWIDTH 8 0
BBX 7 7 1 -1
BITMAP
3C
2C
6C
6C
6C
FE
C6
ENDCHAR
STARTCHAR afii10070
ENCODING 1077
SWIDTH 545 0
DWIDTH 6 0
BBX 5 6 1 0
BITMAP
70
D8
F8
C0
C8
70
ENDCHAR
STARTCHAR afii10072
ENCODING 1078
SWIDTH 818 0
DWIDTH 9 0
BBX 8 6 1 0
BITMAP
DB
DB
7E
DB
DB
DB
ENDCHAR
STARTCHAR afii10073
ENCODING 1079
SWIDTH 545 0
DWIDTH 6 0
BBX 5 6 1 0
BITMAP
70
98
30
18
98
70
ENDCHAR
STARTCHAR afii10074
ENCODING 1080
SWIDTH 545 0
DWIDTH 6 0
BBX 5 6 1 0
BITMAP
D8
D8
D8
D8
D8
78
ENDCHAR
STARTCHAR afii10075
ENCODING 1081
SWIDTH 545 0
DWIDTH 6 0
BBX 5 9 1 0
BITMAP
58
30
00
D8
D8
D8
D8
D8
78
ENDCHAR
STARTCHAR afii10076
ENCODING 1082
SWIDTH 636 0
DWIDTH 7 0
BBX 6 6 1 0
BITMAP
CC
D8
F0
D8
CC
CC
ENDCHAR
STARTCHAR afii10077
ENCODING 1083
SWIDTH 545 0
DWIDTH 6 0
BBX 5 6 1 0
BITMAP
78
58
D8
D8
D8
D8
ENDCHAR
STARTCHAR afii10078
ENCODING 1084
SWIDTH 818 0
DWIDTH 9 0
BBX 8 6 1 0
BITMAP
83
C7
EF
BB
93
83
ENDCHAR
STARTCHAR afii10079
ENCODING 1085
SWIDTH 545 0
DWIDTH 6 0
BBX 5 6 1 0
BITMAP
D8
D8
F8
D8
D8
D8
ENDCHAR
STARTCHAR afii10080
ENCODING 1086
SWIDTH 545 0
DWIDTH 6 0
BBX 5 6 1 0
BITMAP
70
D8
D8
D8
D8
70
ENDCHAR
STARTCHAR afii10081
ENCODING 1087
SWIDTH 545 0
DWIDTH 6 0
BBX 5 6 1 0
BITMAP
F8
D8
D8
D8
D8
D8
ENDCHAR
STARTCHAR afii10082
ENCODING 1088
SWIDTH 545 0
DWIDTH 6 0
BBX 5 8 1 -2
BITMAP
F0
D8
D8
D8
D8
F0
C0
C0
ENDCHAR
STARTCHAR afii10083
ENCODING 1089
SWIDTH 545 0
DWIDTH 6 0
BBX 5 6 1 0
BITMAP
70
C8
C0
C0
C8
70
ENDCHAR
STARTCHAR afii10084
ENCODING 1090
SWIDTH 636 0
DWIDTH 7 0
BBX 6 6 1 0
BITMAP
FC
30
30
30
30
30
ENDCHAR
STARTCHAR afii10085
ENCODING 1091
SWIDTH 545 0
DWIDTH 6 0
BBX 5 8 1 -2
BITMAP
D8
D8
D8
D8
D8
78
18
F0
ENDCHAR
STARTCHAR afii10086
ENCODING 1092
SWIDTH 818 0
DWIDTH 9 0
BBX 8 10 1 -2
BITMAP
18
18
7E
DB
DB
DB
DB
7E
18
18
ENDCHAR
STARTCHAR afii10087
ENCODING 1093
SWIDTH 545 0
DWIDTH 6 0
BBX 5 6 1 0
BITMAP
D8
D8
70
D8
D8
D8
ENDCHAR
STARTCHAR afii10088
ENCODING 1094
SWIDTH 636 0
DWIDTH 7 0
BBX 6 7 1 -1
BITMAP
D8
D8
D8
D8
D8
FC
04
ENDCHAR
STARTCHAR afii10089
ENCODING 1095
SWIDTH 545 0
DWIDTH 6 0
BBX 5 6 1 0
BITMAP
D8
D8
D8
78
18
18
ENDCHAR
STARTCHAR afii10090
ENCODING 1096
SWIDTH 818 0
DWIDTH 9 0
BBX 8 6 1 0
BITMAP
DB
DB
DB
DB
DB
FF
ENDCHAR
STARTCHAR afii10091
ENCODING 1097
SWIDTH 909 0
DWIDTH 10 0
BBX 9 7 1 -1
BITMAP
DB00
DB00
DB00
DB00
DB00
FF80
0080
ENDCHAR
STARTCHAR afii10092
ENCODING 1098
SWIDTH 545 0
DWIDTH 6 0
BBX 6 6 0 0
BITMAP
E0
60
78
6C
6C
78
ENDCHAR
STARTCHAR afii10093
ENCODING 1099
SWIDTH 727 0
DWIDTH 8 0
BBX 7 6 1 0
BITMAP
C6
C6
F6
DE
DE
F6
ENDCHAR
STARTCHAR afii10094
ENCODING 1100
SWIDTH 545 0
DWIDTH 6 0
BBX 5 6 1 0
BITMAP
C0
C0
F0
D8
D8
F0
ENDCHAR
STARTCHAR afii10095
ENCODING 1101
SWIDTH 545 0
DWIDTH 6 0
BBX 5 6 1 0
BITMAP
70
98
38
18
98
70
ENDCHAR
STARTCHAR afii10096
ENCODING 1102
SWIDTH 818 0
DWIDTH 9 0
BBX 8 6 1 0
BITMAP
CE
DB
FB
DB
DB
CE
ENDCHAR
STARTCHAR afii10097
ENCODING 1103
SWIDTH 545 0
DWIDTH 6 0
BBX 5 6 1 0
BITMAP
78
D8
78
D8
D8
D8
ENDCHAR
STARTCHAR uni0450
ENCODING 1104
SWIDTH 545 0
DWIDTH 6 0
BBX 5 9 1 0
BITMAP
60
20
00
70
D8
F8
C0
C8
70
ENDCHAR
STARTCHAR afii10071
ENCODING 1105
SWIDTH 545 0
DWIDTH 6 0
BBX 5 8 1 0
BITMAP
50
00
70
D8
F8
C0
C8
70
ENDCHAR
STARTCHAR afii57664
ENCODING 1488
SWIDTH 636 0
DWIDTH 7 0
BBX 6 8 1 0
BITMAP
CC
CC
EC
78
DC
CC
CC
CC
ENDCHAR
STARTCHAR afii57665
ENCODING 1489
SWIDTH 636 0
DWIDTH 7 0
BBX 6 8 1 0
BITMAP
F0
18
18
18
18
18
18
FC
ENDCHAR
STARTCHAR afii57666
ENCODING 1490
SWIDTH 545 0
DWIDTH 6 0
BBX 5 8 1 0
BITMAP
E0
30
30
30
30
30
70
D8
ENDCHAR
STARTCHAR afii57667
ENCODING 1491
SWIDTH 636 0
DWIDTH 7 0
BBX 6 8 1 0
BITMAP
FC
18
18
18
18
18
18
18
ENDCHAR
STARTCHAR afii57668
ENCODING 1492
SWIDTH 545 0
DWIDTH 6 0
BBX 5 8 1 0
BITMAP
F0
18
D8
D8
D8
D8
D8
D8
ENDCHAR
STARTCHAR afii57669
ENCODING 1493
SWIDTH 363 0
DWIDTH 4 0
BBX 3 8 1 0
BITMAP
C0
60
60
60
60
60
60
60
ENDCHAR
STARTCHAR afii57670
ENCODING 1494
SWIDTH 545 0
DWIDTH 6 0
BBX 5 8 1 0
BITMAP
F8
10
30
30
30
30
30
30
ENDCHAR
STARTCHAR afii57671
ENCODING 1495
SWIDTH 545 0
DWIDTH 6 0
BBX 5 8 1 0
BITMAP
F0
D8
D8
D8
D8
D8
D8
D8
ENDCHAR
STARTCHAR afii57672
ENCODING 1496
SWIDTH 636 0
DWIDTH 7 0
BBX 6 8 1 0
BITMAP
D8
CC
CC
CC
CC
CC
CC
78
ENDCHAR
STARTCHAR afii57673
ENCODING 1497
SWIDTH 333 0
DWIDTH 5 0
BBX 4 4 1 4
BITMAP
E0
30
30
30
ENDCHAR
STARTCHAR afii57674
ENCODING 1498
SWIDTH 545 0
DWIDTH 6 0
BBX 5 10 1 -2
BITMAP
F8
18
18
18
18
18
18
18
18
18
ENDCHAR
STARTCHAR afii57675
ENCODING 1499
SWIDTH 545 0
DWIDTH 6 0
BBX 5 8 1 0
BITMAP
F0
18
18
18
18
18
18
F0
ENDCHAR
STARTCHAR afii57676
ENCODING 1500
SWIDTH 636 0
DWIDTH 7 0
BBX 6 9 1 0
BITMAP
C0
C0
FC
0C
0C
18
30
30
30
ENDCHAR
STARTCHAR afii57677
ENCODING 1501
SWIDTH 545 0
DWIDTH 6 0
BBX 5 8 1 0
BITMAP
F0
D8
D8
D8
D8
D8
D8
F8
ENDCHAR
STARTCHAR afii57678
ENCODING 1502
SWIDTH 636 0
DWIDTH 7 0
BBX 6 8 1 0
BITMAP
D8
EC
CC
CC
CC
CC
CC
DC
ENDCHAR
STARTCHAR afii57679
ENCODING 1503
SWIDTH 454 0
DWIDTH 5 0
BBX 4 10 1 -2
BITMAP
E0
30
30
30
30
30
30
30
30
30
ENDCHAR
STARTCHAR afii57680
ENCODING 1504
SWIDTH 454 0
DWIDTH 5 0
BBX 4 8 1 0
BITMAP
E0
30
30
30
30
30
30
F0
ENDCHAR
STARTCHAR afii57681
ENCODING 1505
SWIDTH 545 0
DWIDTH 6 0
BBX 5 8 1 0
BITMAP
70
D8
D8
D8
D8
D8
D0
70
ENDCHAR
STARTCHAR afii57682
ENCODING 1506
SWIDTH 636 0
DWIDTH 7 0
BBX 6 8 1 0
BITMAP
6C
6C
6C
6C
6C
6C
6C
F8
ENDCHAR
STARTCHAR afii57683
ENCODING 1507
SWIDTH 636 0
DWIDTH 7 0
BBX 6 10 1 -2
BITMAP
F8
CC
CC
CC
6C
0C
0C
0C
0C
0C
ENDCHAR
STARTCHAR afii57684
ENCODING 1508
SWIDTH 636 0
DWIDTH 7 0
BBX 6 8 1 0
BITMAP
F8
CC
CC
EC
0C
0C
0C
F8
ENDCHAR
STARTCHAR afii57685
ENCODING 1509
SWIDTH 545 0
DWIDTH 6 0
BBX 5 10 1 -2
BITMAP
D8
D8
D8
D8
D8
D0
E0
C0
C0
C0
ENDCHAR
STARTCHAR afii57686
ENCODING 1510
SWIDTH 636 0
DWIDTH 7 0
BBX 6 8 1 0
BITMAP
CC
CC
CC
68
30
18
0C
F8
ENDCHAR
STARTCHAR afii57687
ENCODING 1511
SWIDTH 636 0
DWIDTH 7 0
BBX 6 10 1 -2
BITMAP
F8
0C
CC
CC
CC
CC
DC
C0
C0
C0
ENDCHAR
STARTCHAR afii57688
ENCODING 1512
SWIDTH 545 0
DWIDTH 6 0
BBX 5 8 1 0
BITMAP
F0
18
18
18
18
18
18
18
ENDCHAR
STARTCHAR afii57689
ENCODING 1513
SWIDTH 818 0
DWIDTH 9 0
BBX 8 8 1 0
BITMAP
DB
DB
DB
DB
DB
DB
DB
FE
ENDCHAR
STARTCHAR afii57690
ENCODING 1514
SWIDTH 636 0
DWIDTH 7 0
BBX 6 8 1 0
BITMAP
78
6C
6C
6C
6C
6C
6C
EC
ENDCHAR
STARTCHAR afii57716
ENCODING 1520
SWIDTH 636 0
DWIDTH 7 0
BBX 6 8 1 0
BITMAP
D8
6C
6C
6C
6C
6C
6C
6C
ENDCHAR
STARTCHAR afii57717
ENCODING 1521
SWIDTH 727 0
DWIDTH 8 0
BBX 7 8 1 0
BITMAP
EC
36
36
06
06
06
06
06
ENDCHAR
STARTCHAR afii57718
ENCODING 1522
SWIDTH 727 0
DWIDTH 8 0
BBX 7 3 1 5
BITMAP
EC
36
36
ENDCHAR
STARTCHAR uni05F3
ENCODING 1523
SWIDTH 363 0
DWIDTH 4 0
BBX 3 2 1 7
BITMAP
60
C0
ENDCHAR
STARTCHAR uni05F4
ENCODING 1524
SWIDTH 636 0
DWIDTH 7 0
BBX 6 2 1 7
BITMAP
6C
D8
ENDCHAR
STARTCHAR quoteleft
ENCODING 8216
SWIDTH 307 0
DWIDTH 4 0
BBX 3 3 1 6
BITMAP
60
C0
C0
ENDCHAR
STARTCHAR quoteright
ENCODING 8217
SWIDTH 1000 0
DWIDTH 4 0
BBX 3 3 0 6
BITMAP
60
60
C0
ENDCHAR
STARTCHAR quotesinglbase
ENCODING 8218
SWIDTH 1000 0
DWIDTH 4 0
BBX 3 3 0 -1
BITMAP
60
60
C0
ENDCHAR
STARTCHAR quotereversed
ENCODING 8219
SWIDTH 1000 0
DWIDTH 4 0
BBX 3 3 1 6
BITMAP
C0
C0
60
ENDCHAR
STARTCHAR quotedblleft
ENCODING 8220
SWIDTH 1000 0
DWIDTH 7 0
BBX 6 3 1 6
BITMAP
6C
D8
D8
ENDCHAR
STARTCHAR quotedblright
ENCODING 8221
SWIDTH 538 0
DWIDTH 7 0
BBX 6 3 0 6
BITMAP
6C
6C
D8
ENDCHAR
STARTCHAR quotedblbase
ENCODING 8222
SWIDTH 1000 0
DWIDTH 7 0
BBX 6 3 0 -1
BITMAP
6C
6C
D8
ENDCHAR
STARTCHAR uni201F
ENCODING 8223
SWIDTH 1000 0
DWIDTH 7 0
BBX 6 3 1 6
BITMAP
D8
D8
6C
ENDCHAR
STARTCHAR Euro
ENCODING 8364
SWIDTH 636 0
DWIDTH 7 0
BBX 6 8 1 0
BITMAP
38
64
60
F8
60
F0
64
38
ENDCHAR
ENDFONT
